
 
<svg xmlns="http://www.w3.org/2000/svg" xmlns:xlink="http://www.w3.org/1999/xlink" viewBox="-2 -2 504 504" id="menu" style="transform-origin: 50% 50% 0px; transform: matrix3d(0.806195, 0.591651, 0, 0, -0.591651, 0.806195, 0, 0, 0, 0, 1, 0, 0, 0, 0, 1); touch-action: none; -webkit-user-select: none;">
<style>#menu{display:block;margin:0 auto;}a{cursor:pointer;outline:none;}.item .sector{transition:all .1s linear;fill:#fff;stroke:#111;}.item:hover .sector,.item:focus .sector{fill:#eee;}.menu-trigger{fill:#EA2A55;pointer-events:auto;}.menu-trigger:hover,.menu-trigger:focus{cursor:pointer;}symbol{overflow:visible;}</style>
<g id="symbolsContainer">    <symbol class="icon icon-" id="icon-1" viewBox="0 0 89 89"><!--Replace the contents of this symbol with the content of your icon--><rect fill="none" stroke="#111" stroke-width="1" width="100%" height="100%"></rect><text fill="#222" x="50%" y="50%" dy=".3em" text-anchor="middle" font-size="1.2em">1</text></symbol>

    <symbol class="icon icon-" id="icon-2" viewBox="0 0 89 89"><!--Replace the contents of this symbol with the content of your icon--><rect fill="none" stroke="#111" stroke-width="1" width="100%" height="100%"></rect><text fill="#222" x="50%" y="50%" dy=".3em" text-anchor="middle" font-size="1.2em">2</text></symbol>

    <symbol class="icon icon-" id="icon-3" viewBox="0 0 89 89"><!--Replace the contents of this symbol with the content of your icon--><rect fill="none" stroke="#111" stroke-width="1" width="100%" height="100%"></rect><text fill="#222" x="50%" y="50%" dy=".3em" text-anchor="middle" font-size="1.2em">3</text></symbol>

    <symbol class="icon icon-" id="icon-4" viewBox="0 0 89 89"><!--Replace the contents of this symbol with the content of your icon--><rect fill="none" stroke="#111" stroke-width="1" width="100%" height="100%"></rect><text fill="#222" x="50%" y="50%" dy=".3em" text-anchor="middle" font-size="1.2em">4</text></symbol>

    <symbol class="icon icon-" id="icon-5" viewBox="0 0 89 89"><!--Replace the contents of this symbol with the content of your icon--><rect fill="none" stroke="#111" stroke-width="1" width="100%" height="100%"></rect><text fill="#222" x="50%" y="50%" dy=".3em" text-anchor="middle" font-size="1.2em">5</text></symbol>

    <symbol class="icon icon-" id="icon-6" viewBox="0 0 89 89"><!--Replace the contents of this symbol with the content of your icon--><rect fill="none" stroke="#111" stroke-width="1" width="100%" height="100%"></rect><text fill="#222" x="50%" y="50%" dy=".3em" text-anchor="middle" font-size="1.2em">6</text></symbol>

</g>
<g id="itemsContainer">        <a class="item" id="item-1" role="link" tabindex="0" xlink:href=" " xlink:title=" " transform="matrix(1,0,0,1,0,0)" data-svg-origin="250 250" style=""><path fill="none" stroke="#111" d="M330,250 l170,0 A250,250 0 0,0 375,33.49364905389035 l-85,147.22431864335456 A80,80 0 0,1 330,250" class="sector"></path><use xlink:href="#icon-1" width="89" height="89" x="354.45635986328125" y="119.5" transform="rotate(60 398.95635986328125 164)"></use></a>
        <a class="item" id="item-2" role="link" tabindex="0" xlink:href=" " xlink:title=" " transform="matrix(0.5,-0.86602,0.86602,0.5,-91.5063509461097,341.5063509461096)" data-svg-origin="250 250" style=""><path fill="none" stroke="#111" d="M330,250 l170,0 A250,250 0 0,0 375,33.49364905389035 l-85,147.22431864335456 A80,80 0 0,1 330,250" class="sector"></path><use xlink:href="#icon-2" width="89" height="89" x="354.45635986328125" y="119.5" transform="rotate(60 398.95635986328125 164)"></use></a>
        <a class="item" id="item-3" role="link" tabindex="0" xlink:href=" " xlink:title=" " transform="matrix(-0.49999,-0.86602,0.86602,-0.49999,158.49364905389024,591.5063509461097)" data-svg-origin="250 250" style=""><path fill="none" stroke="#111" d="M330,250 l170,0 A250,250 0 0,0 375,33.49364905389035 l-85,147.22431864335456 A80,80 0 0,1 330,250" class="sector"></path><use xlink:href="#icon-3" width="89" height="89" x="354.45635986328125" y="119.5" transform="rotate(60 398.95635986328125 164)"></use></a>
        <a class="item" id="item-4" role="link" tabindex="0" xlink:href=" " xlink:title=" " transform="matrix(-1,0,0,-1,500,500)" data-svg-origin="250 250" style=""><path fill="none" stroke="#111" d="M330,250 l170,0 A250,250 0 0,0 375,33.49364905389035 l-85,147.22431864335456 A80,80 0 0,1 330,250" class="sector"></path><use xlink:href="#icon-4" width="89" height="89" x="354.45635986328125" y="119.5" transform="rotate(60 398.95635986328125 164)"></use></a>
        <a class="item" id="item-5" role="link" tabindex="0" xlink:href=" " xlink:title=" " transform="matrix(-0.5,0.86602,-0.86602,-0.5,591.5063509461097,158.4936490538905)" data-svg-origin="250 250" style=""><path fill="none" stroke="#111" d="M330,250 l170,0 A250,250 0 0,0 375,33.49364905389035 l-85,147.22431864335456 A80,80 0 0,1 330,250" class="sector"></path><use xlink:href="#icon-5" width="89" height="89" x="354.45635986328125" y="119.5" transform="rotate(60 398.95635986328125 164)"></use></a>
        <a class="item" id="item-6" role="link" tabindex="0" xlink:href=" " xlink:title=" " transform="matrix(0.5,0.86602,-0.86602,0.5,341.5063509461096,-91.5063509461097)" data-svg-origin="250 250" style=""><path fill="none" stroke="#111" d="M330,250 l170,0 A250,250 0 0,0 375,33.49364905389035 l-85,147.22431864335456 A80,80 0 0,1 330,250" class="sector"></path><use xlink:href="#icon-6" width="89" height="89" x="354.45635986328125" y="119.5" transform="rotate(60 398.95635986328125 164)"></use></a>
</g>
<g id="trigger" class="trigger menu-trigger" role="button">
<circle cx="250" cy="250" r="20"></circle>
 
</g>
</svg>
